<svg width="27" height="26" viewBox="0 0 27 26" fill="none" xmlns="http://www.w3.org/2000/svg">
<path d="M5.15444 19.375C6.28959 18.5625 7.55828 17.9219 8.96053 17.4531C10.3628 16.9844 11.8318 16.75 13.3676 16.75C14.9034 16.75 16.3724 16.9844 17.7746 17.4531C19.1769 17.9219 20.4456 18.5625 21.5807 19.375C22.3597 18.5208 22.9663 17.5521 23.4003 16.4688C23.8343 15.3854 24.0513 14.2292 24.0513 13C24.0513 10.2292 23.0108 7.86979 20.9297 5.92188C18.8486 3.97396 16.3279 3 13.3676 3C10.4073 3 7.88659 3.97396 5.80548 5.92188C3.72437 7.86979 2.68382 10.2292 2.68382 13C2.68382 14.2292 2.90083 15.3854 3.33486 16.4688C3.76889 17.5521 4.37541 18.5208 5.15444 19.375ZM13.3676 14.25C12.0544 14.25 10.947 13.8281 10.0456 12.9844C9.14415 12.1406 8.69343 11.1042 8.69343 9.875C8.69343 8.64583 9.14415 7.60938 10.0456 6.76563C10.947 5.92188 12.0544 5.5 13.3676 5.5C14.6808 5.5 15.7881 5.92188 16.6896 6.76563C17.591 7.60938 18.0417 8.64583 18.0417 9.875C18.0417 11.1042 17.591 12.1406 16.6896 12.9844C15.7881 13.8281 14.6808 14.25 13.3676 14.25ZM13.3676 25.5C11.5202 25.5 9.78407 25.1719 8.15925 24.5156C6.53442 23.8594 5.12105 22.9688 3.91913 21.8438C2.7172 20.7188 1.76568 19.3958 1.06456 17.875C0.363439 16.3542 0.0128784 14.7292 0.0128784 13C0.0128784 11.2708 0.363439 9.64583 1.06456 8.125C1.76568 6.60417 2.7172 5.28125 3.91913 4.15625C5.12105 3.03125 6.53442 2.14063 8.15925 1.48438C9.78407 0.828125 11.5202 0.5 13.3676 0.5C15.215 0.5 16.9511 0.828125 18.5759 1.48438C20.2007 2.14063 21.6141 3.03125 22.816 4.15625C24.018 5.28125 24.9695 6.60417 25.6706 8.125C26.3717 9.64583 26.7223 11.2708 26.7223 13C26.7223 14.7292 26.3717 16.3542 25.6706 17.875C24.9695 19.3958 24.018 20.7188 22.816 21.8438C21.6141 22.9688 20.2007 23.8594 18.5759 24.5156C16.9511 25.1719 15.215 25.5 13.3676 25.5Z" fill="#1D1B20"/>
</svg>
