<svg width="26" height="22" viewBox="0 0 26 22" fill="none" xmlns="http://www.w3.org/2000/svg">
<path fill-rule="evenodd" clip-rule="evenodd" d="M0 19C0 20.6568 1.24528 22 2.78141 22H23.2186C24.7548 22 26 20.6568 26 19V14.9319C26 14.4804 25.7194 14.0849 25.3155 13.9668C24.1039 13.6126 23.2137 12.4171 23.2137 11C23.2137 9.58288 24.1039 8.38742 25.3155 8.03322C25.7194 7.9151 26 7.51958 26 7.06806V3C26 1.34314 24.7548 0 23.2186 0H2.78141C1.24528 0 0 1.34314 0 3V7.05926C0 7.51394 0.284379 7.91138 0.692159 8.02662C1.91542 8.3723 2.8168 9.57388 2.8168 11C2.8168 12.4261 1.91542 13.6277 0.692159 13.9734C0.284379 14.0886 0 14.4861 0 14.9407V19ZM9.21598 16.8839L18.5017 6.88388C18.9549 6.39572 18.9549 5.60428 18.5017 5.11612C18.0484 4.62796 17.3135 4.62796 16.8602 5.11612L7.57449 15.1161C7.1212 15.6043 7.1212 16.3957 7.57449 16.8839C8.02776 17.372 8.76269 17.372 9.21598 16.8839ZM7.46666 7C7.46666 5.89544 8.29812 5 9.3238 5C10.3495 5 11.1809 5.89544 11.1809 7C11.1809 8.10456 10.3495 9 9.3238 9C8.29812 9 7.46666 8.10456 7.46666 7ZM14.8952 15C14.8952 13.8954 15.7267 13 16.7524 13C17.778 13 18.6095 13.8954 18.6095 15C18.6095 16.1046 17.778 17 16.7524 17C15.7267 17 14.8952 16.1046 14.8952 15Z" fill="black"/>
</svg>
