<svg width="33" height="30" viewBox="0 0 33 30" fill="none" xmlns="http://www.w3.org/2000/svg">
<path d="M10.6838 22.5L16.0257 18.6875L21.3675 22.5L19.3643 16.3125L24.7062 12.75H18.1624L16.0257 6.25L13.8889 12.75H7.3451L12.687 16.3125L10.6838 22.5ZM16.0257 27.5C14.1783 27.5 12.4421 27.1719 10.8173 26.5156C9.1925 25.8594 7.77913 24.9688 6.57721 23.8438C5.37529 22.7188 4.42376 21.3958 3.72264 19.875C3.02152 18.3542 2.67096 16.7292 2.67096 15C2.67096 13.2708 3.02152 11.6458 3.72264 10.125C4.42376 8.60417 5.37529 7.28125 6.57721 6.15625C7.77913 5.03125 9.1925 4.14063 10.8173 3.48438C12.4421 2.82812 14.1783 2.5 16.0257 2.5C17.8731 2.5 19.6092 2.82812 21.234 3.48438C22.8588 4.14063 24.2722 5.03125 25.4741 6.15625C26.676 7.28125 27.6276 8.60417 28.3287 10.125C29.0298 11.6458 29.3804 13.2708 29.3804 15C29.3804 16.7292 29.0298 18.3542 28.3287 19.875C27.6276 21.3958 26.676 22.7188 25.4741 23.8438C24.2722 24.9688 22.8588 25.8594 21.234 26.5156C19.6092 27.1719 17.8731 27.5 16.0257 27.5Z" fill="#1D1B20"/>
</svg>
