<svg width="28" height="26" viewBox="0 0 28 26" fill="none" xmlns="http://www.w3.org/2000/svg">
<path d="M10.3531 25.5L9.81893 21.5C9.52958 21.3958 9.25692 21.2708 9.00096 21.125C8.74499 20.9792 8.49459 20.8229 8.24975 20.6562L4.27673 22.2188L0.604187 16.2812L4.04302 13.8438C4.02076 13.6979 4.00964 13.5573 4.00964 13.4219V12.5781C4.00964 12.4427 4.02076 12.3021 4.04302 12.1562L0.604187 9.71875L4.27673 3.78125L8.24975 5.34375C8.49459 5.17708 8.75055 5.02083 9.01765 4.875C9.28474 4.72917 9.55184 4.60417 9.81893 4.5L10.3531 0.5H17.6982L18.2324 4.5C18.5217 4.60417 18.7944 4.72917 19.0504 4.875C19.3063 5.02083 19.5567 5.17708 19.8016 5.34375L23.7746 3.78125L27.4471 9.71875L24.0083 12.1562C24.0306 12.3021 24.0417 12.4427 24.0417 12.5781V13.4219C24.0417 13.5573 24.0194 13.6979 23.9749 13.8438L27.4137 16.2812L23.7412 22.2188L19.8016 20.6562C19.5567 20.8229 19.3008 20.9792 19.0337 21.125C18.7666 21.2708 18.4995 21.3958 18.2324 21.5L17.6982 25.5H10.3531ZM12.6902 23H15.3277L15.7952 19.6875C16.4852 19.5208 17.1251 19.276 17.7149 18.9531C18.3047 18.6302 18.8445 18.2396 19.3342 17.7812L22.6394 19.0625L23.9415 16.9375L21.0703 14.9063C21.1816 14.6146 21.2595 14.3073 21.304 13.9844C21.3485 13.6615 21.3707 13.3333 21.3707 13C21.3707 12.6667 21.3485 12.3385 21.304 12.0156C21.2595 11.6927 21.1816 11.3854 21.0703 11.0938L23.9415 9.0625L22.6394 6.9375L19.3342 8.25C18.8445 7.77083 18.3047 7.36979 17.7149 7.04688C17.1251 6.72396 16.4852 6.47917 15.7952 6.3125L15.3611 3H12.7236L12.2562 6.3125C11.5662 6.47917 10.9263 6.72396 10.3364 7.04688C9.74659 7.36979 9.20684 7.76042 8.71717 8.21875L5.41188 6.9375L4.1098 9.0625L6.98106 11.0625C6.86977 11.375 6.79186 11.6875 6.74735 12C6.70283 12.3125 6.68058 12.6458 6.68058 13C6.68058 13.3333 6.70283 13.6563 6.74735 13.9688C6.79186 14.2813 6.86977 14.5938 6.98106 14.9063L4.1098 16.9375L5.41188 19.0625L8.71717 17.75C9.20684 18.2292 9.74659 18.6302 10.3364 18.9531C10.9263 19.276 11.5662 19.5208 12.2562 19.6875L12.6902 23ZM14.0924 17.375C15.3834 17.375 16.4852 16.9479 17.3977 16.0938C18.3103 15.2396 18.7666 14.2083 18.7666 13C18.7666 11.7917 18.3103 10.7604 17.3977 9.90625C16.4852 9.05208 15.3834 8.625 14.0924 8.625C12.7792 8.625 11.6719 9.05208 10.7705 9.90625C9.86901 10.7604 9.41829 11.7917 9.41829 13C9.41829 14.2083 9.86901 15.2396 10.7705 16.0938C11.6719 16.9479 12.7792 17.375 14.0924 17.375Z" fill="#1D1B20"/>
</svg>
